<?xml version="1.0" encoding="UTF-8" standalone="no"?>
<svg
   viewBox="0 0 76 52"
   width="28.5"
   height="19.5"
   version="1.1"
   id="svg7"
   sodipodi:docname="discover.svg"
   inkscape:version="1.3 (0e150ed6c4, 2023-07-21)"
   xmlns:inkscape="http://www.inkscape.org/namespaces/inkscape"
   xmlns:sodipodi="http://sodipodi.sourceforge.net/DTD/sodipodi-0.dtd"
   xmlns="http://www.w3.org/2000/svg"
   xmlns:svg="http://www.w3.org/2000/svg">
  <defs
     id="defs7" />
  <sodipodi:namedview
     id="namedview7"
     pagecolor="#ffffff"
     bordercolor="#000000"
     borderopacity="0.25"
     inkscape:showpageshadow="2"
     inkscape:pageopacity="0.0"
     inkscape:pagecheckerboard="0"
     inkscape:deskcolor="#d1d1d1"
     inkscape:zoom="29.7"
     inkscape:cx="14.242424"
     inkscape:cy="9.7474747"
     inkscape:window-width="1920"
     inkscape:window-height="1129"
     inkscape:window-x="-8"
     inkscape:window-y="-8"
     inkscape:window-maximized="1"
     inkscape:current-layer="svg7" />
  <path
     fill="#e1ebf2"
     d="M 6,51.5 C 2.967,51.5 0.5,49.033 0.5,46 V 6 C 0.5,2.967 2.967,0.5 6,0.5 h 64 c 3.033,0 5.5,2.467 5.5,5.5 v 40 c 0,3.033 -2.467,5.5 -5.5,5.5 z"
     id="path1" />
  <path
     fill="#788b9c"
     d="m 70,1 c 2.757,0 5,2.243 5,5 v 40 c 0,2.757 -2.243,5 -5,5 H 6 C 3.243,51 1,48.757 1,46 V 6 C 1,3.243 3.243,1 6,1 H 70 M 70,0 H 6 C 2.686,0 0,2.686 0,6 v 40 c 0,3.314 2.686,6 6,6 h 64 c 3.314,0 6,-2.686 6,-6 V 6 C 76,2.686 73.314,0 70,0 Z"
     id="path2" />
  <path
     fill="#ffc49c"
     d="M 29.368,51.5 C 40.674,49.125 66.681,42.253 75.5,27.925 V 46 c 0,3.033 -2.467,5.5 -5.5,5.5 z"
     id="path3" />
  <path
     fill="#a16a4a"
     d="M 75,29.578 V 46 c 0,2.757 -2.243,5 -5,5 H 33.844 C 46.064,48.049 66.444,41.537 75,29.578 M 76,26 C 66.317,45.413 24,52 24,52 h 46 c 3.314,0 6,-2.686 6,-6 z"
     id="path4" />
  <path
     fill="#ffc49c"
     d="m 39.81,29.5 c -2.581,0 -4.526,-1.935 -4.526,-4.5 0,-2.565 1.946,-4.5 4.526,-4.5 2.58,0 4.526,1.935 4.526,4.5 0,2.565 -1.946,4.5 -4.526,4.5 z"
     id="path5" />
  <path
     fill="#a16a4a"
     d="m 39.81,21 c 2.295,0 4.026,1.72 4.026,4 0,2.28 -1.731,4 -4.026,4 -2.295,0 -4.026,-1.72 -4.026,-4 0,-2.28 1.73,-4 4.026,-4 m 0,-1 c -2.848,0 -5.026,2.167 -5.026,5 0,2.833 2.178,5 5.026,5 2.848,0 5.026,-2.167 5.026,-5 0,-2.833 -2.178,-5 -5.026,-5 z"
     id="path6" />
  <g
     id="g7"
     transform="translate(-2,-14)">
    <path
       fill="#36404d"
       d="M 17.244,34.164 H 19.2 V 44 h -1.956 z m 10.667,4.918 c 0,2.787 2.311,4.918 5.333,4.918 0.889,0 1.6,-0.164 2.489,-0.492 v -2.131 c -0.711,0.656 -1.422,0.984 -2.489,0.984 -1.956,0 -3.378,-1.311 -3.378,-3.279 0,-1.803 1.422,-3.279 3.378,-3.279 0.889,0 1.6,0.328 2.489,0.984 V 34.656 C 34.844,34.328 34.133,34 33.244,34 c -3.022,0.164 -5.333,2.459 -5.333,5.082 z m 23.822,1.475 -2.844,-6.393 H 46.756 L 51.2,44 h 1.067 l 4.444,-9.836 H 54.578 Z M 57.6,44 h 5.689 v -1.639 h -3.733 v -2.623 h 3.556 v -1.639 h -3.556 v -2.295 h 3.733 V 34.165 H 57.6 Z m 13.511,-6.885 c 0,-1.803 -1.244,-2.951 -3.556,-2.951 H 64.533 V 44 h 1.956 v -3.934 h 0.178 L 69.511,44 H 72 l -3.2,-4.098 c 1.422,-0.328 2.311,-1.312 2.311,-2.787 z m -4.089,1.639 h -0.533 v -2.951 h 0.533 c 1.244,0 1.956,0.492 1.956,1.475 0,0.82 -0.534,1.476 -1.956,1.476 z m -56,-4.59 H 8 V 44 h 2.844 c 4.444,0 5.511,-3.443 5.511,-4.918 0.178,-2.951 -2.133,-4.918 -5.333,-4.918 z m -0.533,8.197 H 9.956 v -6.557 h 0.711 c 2.667,0 3.733,1.639 3.733,3.279 0,0.655 -0.178,3.278 -3.911,3.278 z m 14.044,-4.427 c -1.244,-0.492 -1.6,-0.656 -1.6,-1.148 0,-0.656 0.711,-0.984 1.422,-0.984 0.533,0 1.067,0.164 1.6,0.82 l 1.067,-1.311 C 26.133,34.491 25.244,34.163 24,34.163 c -1.778,0 -3.2,1.148 -3.2,2.787 0,1.311 0.711,1.967 2.489,2.623 1.067,0.328 1.956,0.656 1.956,1.475 0,0.82 -0.711,1.311 -1.6,1.311 -0.889,0 -1.778,-0.492 -2.133,-1.311 l -1.244,1.148 c 0.888,1.312 1.954,1.804 3.554,1.804 2.133,0 3.556,-1.311 3.556,-3.115 0,-1.475 -0.711,-2.131 -2.845,-2.951 z"
       id="path7" />
  </g>
</svg>
